<svg width="16" height="16" viewBox="0 0 16 16" fill="none" xmlns="http://www.w3.org/2000/svg">
<path d="M0 3C0 1.34315 1.34315 0 3 0H13C14.6569 0 16 1.34315 16 3V13C16 14.6569 14.6569 16 13 16H3C1.34315 16 0 14.6569 0 13V3Z" fill="#004364"/>
<path d="M2.6545 5.05H3.8785L7.117 9.419L6.7685 9.538V5.05H8.035V11H6.8195L3.581 6.6395L3.938 6.5205V11H2.6545V5.05ZM13.2717 6.665C13.0621 6.53467 12.8439 6.427 12.6172 6.342C12.3962 6.25133 12.1809 6.18333 11.9712 6.138C11.7672 6.087 11.5831 6.0615 11.4187 6.0615C11.1921 6.0615 11.0079 6.10683 10.8662 6.1975C10.7302 6.2825 10.6622 6.41283 10.6622 6.5885C10.6622 6.75283 10.7189 6.88883 10.8322 6.9965C10.9512 7.0985 11.1042 7.1835 11.2912 7.2515C11.4782 7.31383 11.6851 7.379 11.9117 7.447C12.1384 7.50933 12.3622 7.583 12.5832 7.668C12.8099 7.753 13.0167 7.8635 13.2037 7.9995C13.3964 8.12983 13.5466 8.29983 13.6542 8.5095C13.7676 8.7135 13.8242 8.9685 13.8242 9.2745C13.8242 9.65983 13.7222 9.98567 13.5182 10.252C13.3142 10.5183 13.0337 10.7223 12.6767 10.864C12.3254 11.0057 11.9316 11.0765 11.4952 11.0765C11.1666 11.0765 10.8436 11.0368 10.5262 10.9575C10.2089 10.8782 9.90856 10.7677 9.62523 10.626C9.34756 10.4787 9.0954 10.3087 8.86873 10.116L9.40423 9.062C9.60823 9.24333 9.83206 9.402 10.0757 9.538C10.3251 9.674 10.5744 9.77883 10.8237 9.8525C11.0731 9.92617 11.3026 9.963 11.5122 9.963C11.7899 9.963 12.0052 9.90917 12.1582 9.8015C12.3169 9.69383 12.3962 9.54083 12.3962 9.3425C12.3962 9.1725 12.3396 9.0365 12.2262 8.9345C12.1129 8.8325 11.9627 8.7475 11.7757 8.6795C11.5887 8.60583 11.3819 8.54067 11.1552 8.484C10.9286 8.42167 10.7019 8.35083 10.4752 8.2715C10.2486 8.1865 10.0417 8.08167 9.85473 7.957C9.66773 7.82667 9.51473 7.66233 9.39573 7.464C9.2824 7.26567 9.22573 7.0135 9.22573 6.7075C9.22573 6.34483 9.32206 6.03317 9.51473 5.7725C9.7074 5.50617 9.97656 5.30217 10.3222 5.1605C10.6679 5.01317 11.0702 4.9395 11.5292 4.9395C11.9486 4.9395 12.3566 5.00183 12.7532 5.1265C13.1499 5.2455 13.4956 5.40133 13.7902 5.594L13.2717 6.665Z" fill="white"/>
</svg>
